<svg width="31" height="33" viewBox="0 0 31 33" fill="none" xmlns="http://www.w3.org/2000/svg">
<path d="M15.4826 31.695C23.3756 31.695 29.7741 24.8837 29.7741 16.4815C29.7741 8.07927 23.3756 1.26794 15.4826 1.26794C7.58965 1.26794 1.19113 8.07927 1.19113 16.4815C1.19113 24.8837 7.58965 31.695 15.4826 31.695Z" fill="#EFA500"/>
<path d="M18.1558 26.0396C17.8683 26.0396 17.5824 25.9113 17.381 25.6607L11.3476 18.1764C11.088 17.854 11.0284 17.4005 11.1948 17.0147C11.3616 16.6293 11.7236 16.3819 12.1224 16.3819H15.5507C17.0792 16.3819 18.3225 15.0583 18.3225 13.4312C18.3225 11.8041 17.0792 10.4805 15.5507 10.4805H12.1224C11.5586 10.4805 11.1016 9.99402 11.1016 9.39381C11.1016 8.7936 11.5586 8.30713 12.1224 8.30713H15.5507C18.2051 8.30713 20.3642 10.6058 20.3642 13.4312C20.3642 16.2566 18.2048 18.5552 15.5503 18.5552H14.3434L18.9299 24.2451C19.2971 24.7008 19.2481 25.3865 18.8204 25.7773C18.6278 25.9534 18.3913 26.0396 18.1558 26.0396Z" fill="#F68E00"/>
<path d="M21.5653 10.4801H12.1224C11.5586 10.4801 11.1016 9.99365 11.1016 9.39344C11.1016 8.79323 11.5586 8.30676 12.1224 8.30676H21.5653C22.1292 8.30676 22.5862 8.79323 22.5862 9.39344C22.5862 9.99365 22.1292 10.4801 21.5653 10.4801Z" fill="#F68E00"/>
<path d="M21.5653 14.5175H12.1224C11.5586 14.5175 11.1016 14.031 11.1016 13.4308C11.1016 12.8306 11.5586 12.3441 12.1224 12.3441H21.5653C22.1292 12.3441 22.5862 12.8306 22.5862 13.4308C22.5862 14.031 22.1292 14.5175 21.5653 14.5175Z" fill="#F68E00"/>
<path d="M16.072 30.5551C9.2733 29.9513 3.91331 23.872 3.91331 16.4815C3.91331 9.091 9.2733 3.01175 16.072 2.40792V0.229126C8.14631 0.838029 1.87167 7.89203 1.87167 16.4815C1.87167 25.071 8.14631 32.125 16.072 32.7339V30.5551Z" fill="#F68E00"/>
<path d="M15.4826 32.7817C7.03942 32.7817 0.170319 25.4694 0.170319 16.4815C0.170319 7.49354 7.03942 0.181274 15.4826 0.181274C23.9258 0.181274 30.7949 7.49354 30.7949 16.4815C30.7949 25.4694 23.9258 32.7817 15.4826 32.7817ZM15.4826 2.35463C8.16504 2.35463 2.21196 8.69179 2.21196 16.4815C2.21196 24.2712 8.16504 30.6083 15.4826 30.6083C22.8002 30.6083 28.7533 24.2712 28.7533 16.4815C28.7533 8.69179 22.8002 2.35463 15.4826 2.35463Z" fill="#FFDE50"/>
<path d="M16.7947 26.0396C16.5072 26.0396 16.2214 25.9113 16.0199 25.6607L9.98653 18.1764C9.7269 17.854 9.66735 17.4005 9.83375 17.0147C10.0005 16.6293 10.3625 16.3819 10.7613 16.3819H14.1896C15.7181 16.3819 16.9615 15.0583 16.9615 13.4312C16.9615 11.8041 15.7181 10.4805 14.1896 10.4805H10.7613C10.1975 10.4805 9.74051 9.99402 9.74051 9.39381C9.74051 8.7936 10.1975 8.30713 10.7613 8.30713H14.1896C16.8441 8.30713 19.0031 10.6058 19.0031 13.4312C19.0031 16.2566 16.8437 18.5552 14.1892 18.5552H12.9823L17.5688 24.2451C17.936 24.7008 17.887 25.3865 17.4593 25.7773C17.2667 25.9534 17.0302 26.0396 16.7947 26.0396Z" fill="#FFDE50"/>
<path d="M20.2043 10.4801H10.7613C10.1975 10.4801 9.74051 9.99365 9.74051 9.39344C9.74051 8.79323 10.1975 8.30676 10.7613 8.30676H20.2043C20.7681 8.30676 21.2251 8.79323 21.2251 9.39344C21.2251 9.99365 20.7681 10.4801 20.2043 10.4801Z" fill="#FFDE50"/>
<path d="M20.2043 14.5175H10.7613C10.1975 14.5175 9.74051 14.031 9.74051 13.4308C9.74051 12.8306 10.1975 12.3441 10.7613 12.3441H20.2043C20.7681 12.3441 21.2251 12.8306 21.2251 13.4308C21.2251 14.031 20.7681 14.5175 20.2043 14.5175Z" fill="#FFDE50"/>
</svg>
