<svg width="69" height="28" viewBox="0 0 69 28" fill="none" xmlns="http://www.w3.org/2000/svg">
<path d="M6.33 1.47C7.42 1.47 8.25 1.72 8.82 2.22C9.39 2.71 9.675 3.35 9.675 4.14C9.675 4.37 9.655 4.585 9.615 4.785C9.495 5.485 9.19 6.11 8.7 6.66C8.21 7.21 7.555 7.6 6.735 7.83L8.43 12H5.535L4.05 8.025H3.435L2.73 12H0.165L2.025 1.47H6.33ZM6.99 4.89C7.01 4.73 7.02 4.625 7.02 4.575C7.02 4.255 6.915 4.01 6.705 3.84C6.505 3.66 6.205 3.57 5.805 3.57H4.215L3.75 6.21H5.34C5.81 6.21 6.18 6.095 6.45 5.865C6.73 5.635 6.91 5.31 6.99 4.89ZM15.1702 3.51C16.2502 3.51 17.1052 3.805 17.7352 4.395C18.3752 4.975 18.6952 5.77 18.6952 6.78C18.6952 7.11 18.6702 7.405 18.6202 7.665C18.5802 7.895 18.5202 8.14 18.4402 8.4H12.6352C12.6252 8.46 12.6202 8.555 12.6202 8.685C12.6202 9.125 12.7402 9.46 12.9802 9.69C13.2202 9.92 13.5402 10.035 13.9402 10.035C14.5802 10.035 15.0702 9.765 15.4102 9.225H18.1402C17.7802 10.075 17.1952 10.77 16.3852 11.31C15.5752 11.85 14.6652 12.12 13.6552 12.12C12.5752 12.12 11.7102 11.82 11.0602 11.22C10.4202 10.62 10.1002 9.805 10.1002 8.775C10.1002 8.465 10.1302 8.145 10.1902 7.815C10.3402 6.945 10.6502 6.185 11.1202 5.535C11.5902 4.885 12.1752 4.385 12.8752 4.035C13.5752 3.685 14.3402 3.51 15.1702 3.51ZM16.1002 7.095C16.1202 6.955 16.1302 6.86 16.1302 6.81C16.1302 6.41 16.0052 6.105 15.7552 5.895C15.5052 5.675 15.1752 5.565 14.7652 5.565C14.3252 5.565 13.9352 5.7 13.5952 5.97C13.2652 6.23 13.0252 6.605 12.8752 7.095H16.1002ZM25.0433 2.43C24.5533 2.4 24.1933 2.47 23.9633 2.64C23.7433 2.81 23.5933 3.115 23.5133 3.555L23.4983 3.63H24.8783L24.5033 5.76H23.1233L22.0283 12H19.4483L20.5433 5.76H19.6133L19.9883 3.63H20.9183L20.9633 3.39C21.1533 2.36 21.5883 1.58 22.2683 1.05C22.9583 0.51 23.8733 0.239999 25.0133 0.239999C25.1933 0.239999 25.3283 0.244999 25.4183 0.254999L25.0433 2.43ZM29.8186 3.51C30.8986 3.51 31.7536 3.805 32.3836 4.395C33.0236 4.975 33.3436 5.77 33.3436 6.78C33.3436 7.11 33.3186 7.405 33.2686 7.665C33.2286 7.895 33.1686 8.14 33.0886 8.4H27.2836C27.2736 8.46 27.2686 8.555 27.2686 8.685C27.2686 9.125 27.3886 9.46 27.6286 9.69C27.8686 9.92 28.1886 10.035 28.5886 10.035C29.2286 10.035 29.7186 9.765 30.0586 9.225H32.7886C32.4286 10.075 31.8436 10.77 31.0336 11.31C30.2236 11.85 29.3136 12.12 28.3036 12.12C27.2236 12.12 26.3586 11.82 25.7086 11.22C25.0686 10.62 24.7486 9.805 24.7486 8.775C24.7486 8.465 24.7786 8.145 24.8386 7.815C24.9886 6.945 25.2986 6.185 25.7686 5.535C26.2386 4.885 26.8236 4.385 27.5236 4.035C28.2236 3.685 28.9886 3.51 29.8186 3.51ZM30.7486 7.095C30.7686 6.955 30.7786 6.86 30.7786 6.81C30.7786 6.41 30.6536 6.105 30.4036 5.895C30.1536 5.675 29.8236 5.565 29.4136 5.565C28.9736 5.565 28.5836 5.7 28.2436 5.97C27.9136 6.23 27.6736 6.605 27.5236 7.095H30.7486ZM37.6068 5.145C37.9968 4.645 38.4418 4.255 38.9418 3.975C39.4518 3.685 39.9818 3.54 40.5318 3.54L40.0518 6.255H39.3468C38.7068 6.255 38.2018 6.395 37.8318 6.675C37.4618 6.945 37.2168 7.425 37.0968 8.115L36.4068 12H33.8418L35.3118 3.63H37.8768L37.6068 5.145ZM0.405 22.8C0.555 21.94 0.85 21.185 1.29 20.535C1.73 19.885 2.26 19.385 2.88 19.035C3.5 18.685 4.155 18.51 4.845 18.51C5.435 18.51 5.93 18.63 6.33 18.87C6.73 19.11 7.02 19.425 7.2 19.815L7.41 18.63H9.975L8.49 27H5.925L6.15 25.815C5.83 26.205 5.425 26.52 4.935 26.76C4.445 27 3.905 27.12 3.315 27.12C2.725 27.12 2.2 26.985 1.74 26.715C1.29 26.445 0.94 26.065 0.69 25.575C0.44 25.075 0.315 24.49 0.315 23.82C0.315 23.5 0.345 23.16 0.405 22.8ZM6.675 22.815C6.705 22.635 6.72 22.47 6.72 22.32C6.72 21.83 6.575 21.445 6.285 21.165C6.005 20.885 5.645 20.745 5.205 20.745C4.695 20.745 4.23 20.93 3.81 21.3C3.39 21.66 3.125 22.16 3.015 22.8C2.985 22.98 2.97 23.145 2.97 23.295C2.97 23.785 3.11 24.175 3.39 24.465C3.68 24.745 4.04 24.885 4.47 24.885C4.98 24.885 5.445 24.7 5.865 24.33C6.285 23.96 6.555 23.455 6.675 22.815ZM16.9307 18.54C17.7707 18.54 18.4307 18.775 18.9107 19.245C19.3907 19.715 19.6307 20.37 19.6307 21.21C19.6307 21.49 19.6007 21.79 19.5407 22.11L18.6707 27H16.1207L16.9307 22.455C16.9607 22.285 16.9757 22.135 16.9757 22.005C16.9757 21.585 16.8557 21.26 16.6157 21.03C16.3857 20.8 16.0607 20.685 15.6407 20.685C15.1407 20.685 14.7207 20.84 14.3807 21.15C14.0407 21.46 13.8207 21.895 13.7207 22.455V22.38L12.9107 27H10.3457L11.8157 18.63H14.3807L14.1857 19.755C14.5157 19.385 14.9157 19.09 15.3857 18.87C15.8657 18.65 16.3807 18.54 16.9307 18.54ZM20.6931 22.8C20.8431 21.94 21.1381 21.185 21.5781 20.535C22.0181 19.885 22.5481 19.385 23.1681 19.035C23.7881 18.685 24.4431 18.51 25.1331 18.51C25.6831 18.51 26.1631 18.625 26.5731 18.855C26.9931 19.085 27.2981 19.395 27.4881 19.785L28.1781 15.9H30.7431L28.7781 27H26.2131L26.4231 25.8C26.1031 26.2 25.7031 26.52 25.2231 26.76C24.7431 27 24.2081 27.12 23.6181 27.12C23.0281 27.12 22.5031 26.985 22.0431 26.715C21.5931 26.445 21.2381 26.06 20.9781 25.56C20.7281 25.06 20.6031 24.475 20.6031 23.805C20.6031 23.495 20.6331 23.16 20.6931 22.8ZM26.9631 22.815C26.9931 22.635 27.0081 22.47 27.0081 22.32C27.0081 21.83 26.8631 21.445 26.5731 21.165C26.2931 20.885 25.9331 20.745 25.4931 20.745C24.9831 20.745 24.5181 20.93 24.0981 21.3C23.6781 21.66 23.4131 22.16 23.3031 22.8C23.2731 22.98 23.2581 23.145 23.2581 23.295C23.2581 23.785 23.3981 24.175 23.6781 24.465C23.9681 24.745 24.3281 24.885 24.7581 24.885C25.2681 24.885 25.7331 24.7 26.1531 24.33C26.5731 23.96 26.8431 23.455 26.9631 22.815ZM38.1704 18.495L37.7954 20.685H41.2304L40.8854 22.62H37.4504L37.0304 24.975H40.9154L40.5554 27H34.1054L35.9654 16.47H42.4154L42.0554 18.495H38.1704ZM42.4607 22.8C42.6107 21.94 42.9057 21.185 43.3457 20.535C43.7857 19.885 44.3157 19.385 44.9357 19.035C45.5557 18.685 46.2107 18.51 46.9007 18.51C47.4907 18.51 47.9857 18.63 48.3857 18.87C48.7857 19.11 49.0757 19.425 49.2557 19.815L49.4657 18.63H52.0307L50.5457 27H47.9807L48.2057 25.815C47.8857 26.205 47.4807 26.52 46.9907 26.76C46.5007 27 45.9607 27.12 45.3707 27.12C44.7807 27.12 44.2557 26.985 43.7957 26.715C43.3457 26.445 42.9957 26.065 42.7457 25.575C42.4957 25.075 42.3707 24.49 42.3707 23.82C42.3707 23.5 42.4007 23.16 42.4607 22.8ZM48.7307 22.815C48.7607 22.635 48.7757 22.47 48.7757 22.32C48.7757 21.83 48.6307 21.445 48.3407 21.165C48.0607 20.885 47.7007 20.745 47.2607 20.745C46.7507 20.745 46.2857 20.93 45.8657 21.3C45.4457 21.66 45.1807 22.16 45.0707 22.8C45.0407 22.98 45.0257 23.145 45.0257 23.295C45.0257 23.785 45.1657 24.175 45.4457 24.465C45.7357 24.745 46.0957 24.885 46.5257 24.885C47.0357 24.885 47.5007 24.7 47.9207 24.33C48.3407 23.96 48.6107 23.455 48.7307 22.815ZM56.1663 20.145C56.5563 19.645 57.0013 19.255 57.5013 18.975C58.0113 18.685 58.5413 18.54 59.0913 18.54L58.6113 21.255H57.9063C57.2663 21.255 56.7613 21.395 56.3913 21.675C56.0213 21.945 55.7763 22.425 55.6563 23.115L54.9663 27H52.4013L53.8713 18.63H56.4363L56.1663 20.145ZM65.4023 18.54C66.2423 18.54 66.9023 18.775 67.3823 19.245C67.8623 19.715 68.1023 20.37 68.1023 21.21C68.1023 21.49 68.0723 21.79 68.0123 22.11L67.1423 27H64.5923L65.4023 22.455C65.4323 22.285 65.4473 22.135 65.4473 22.005C65.4473 21.585 65.3273 21.26 65.0873 21.03C64.8573 20.8 64.5323 20.685 64.1123 20.685C63.6123 20.685 63.1923 20.84 62.8523 21.15C62.5123 21.46 62.2923 21.895 62.1923 22.455V22.38L61.3823 27H58.8173L60.2873 18.63H62.8523L62.6573 19.755C62.9873 19.385 63.3873 19.09 63.8573 18.87C64.3373 18.65 64.8523 18.54 65.4023 18.54Z" fill="url(#paint0_linear_10_52)"/>
<defs>
<linearGradient id="paint0_linear_10_52" x1="-2.57045e-07" y1="14" x2="69" y2="14" gradientUnits="userSpaceOnUse">
<stop stop-color="#672040"/>
<stop offset="0.5" stop-color="#DC5390"/>
<stop offset="1" stop-color="#672040"/>
</linearGradient>
</defs>
</svg>
